<?xml version="1.0" standalone="no"?><!DOCTYPE svg PUBLIC "-//W3C//DTD SVG 1.1//EN" "http://www.w3.org/Graphics/SVG/1.1/DTD/svg11.dtd"><svg t="1781876704906" class="icon" viewBox="0 0 1130 1024" version="1.1" xmlns="http://www.w3.org/2000/svg" p-id="21805" xmlns:xlink="http://www.w3.org/1999/xlink" width="220.703125" height="200"><path d="M94.411348 889.64539a504.737589 134.35461 0 1 0 1009.475177 0 504.737589 134.35461 0 1 0-1009.475177 0Z" fill="#00A99D" p-id="21806"></path><path d="M1038.524823 32.680851A578.087943 578.087943 0 0 1 32.680851 602.780142z" fill="#C8FFD8" p-id="21807"></path><path d="M533.787234 915.06383a631.829787 631.829787 0 0 1-163.404255-21.787234 598.059574 598.059574 0 0 1-359.489362-283.234043l-10.893617-18.156028L1042.156028 0l10.893617 18.156028a592.612766 592.612766 0 0 1 54.468085 457.531915 598.059574 598.059574 0 0 1-283.234042 359.489362 547.222695 547.222695 0 0 1-290.496454 79.886525zM58.099291 610.042553a547.222695 547.222695 0 0 0 326.80851 246.921986 567.920567 567.920567 0 0 0 428.48227-50.836879 535.239716 535.239716 0 0 0 261.446808-334.070922 555.937589 555.937589 0 0 0-43.574468-410.326242z" fill="#00A99D" p-id="21808"></path><path d="M958.638298 76.255319a490.939007 490.939007 0 0 1-181.560284 664.510638 490.939007 490.939007 0 0 1-664.510638-181.560283z" fill="#FF5156" p-id="21809"></path><path d="M537.41844 824.283688a508.368794 508.368794 0 0 1-443.007092-254.184397l-10.893618-18.156029L962.269504 50.836879l10.893617 18.156029A513.815603 513.815603 0 0 1 784.340426 762.553191a540.686525 540.686525 0 0 1-246.921986 61.730497z m-399.432624-257.815603A472.056738 472.056738 0 0 0 766.184397 726.241135a473.87234 473.87234 0 0 0 185.19149-624.567376z" fill="#FF0000" p-id="21810"></path><path d="M432.113475 555.574468c-18.156028-3.631206-21.787234 25.41844-3.631205 29.049645a14.524823 14.524823 0 0 0 3.631205-29.049645z" fill="#FFFFFF" p-id="21811"></path><path d="M432.113475 602.780142c-14.524823-3.631206-25.41844-7.262411-29.049645-18.156029a26.870922 26.870922 0 0 1 3.631205-32.680851 33.043972 33.043972 0 0 1 29.049646-14.524822 36.312057 36.312057 0 0 1 29.049645 32.680851 32.31773 32.31773 0 0 1-32.680851 32.680851z m0-36.312057l-3.631205 10.893617c3.631206 0 3.631206 0 7.262411-3.631206l-3.631206-7.262411z m0 0a12.70922 12.70922 0 0 0-7.262411 3.631206s3.631206 7.262411 7.262411 7.262411zM838.808511 323.177305c-18.156028-3.631206-21.787234 25.41844-3.631206 29.049645s21.787234-25.41844 3.631206-29.049645z" fill="#FFFFFF" p-id="21812"></path><path d="M838.808511 374.014184H835.177305a32.31773 32.31773 0 0 1-29.049645-36.312056 31.228369 31.228369 0 0 1 10.893617-21.787234 22.513475 22.513475 0 0 1 25.418439-7.262412c10.893617 3.631206 21.787234 7.262411 25.41844 18.156029a26.870922 26.870922 0 0 1-3.631206 32.680851 36.312057 36.312057 0 0 1-25.418439 14.524822z m-3.631206-29.049645a12.70922 12.70922 0 0 0 7.262411-3.631206l-3.631205-3.631205 3.631205-10.893617-3.631205 10.893617a3.631206 3.631206 0 0 0-3.631206 3.631205v3.631206zM635.460993 439.375887c-18.156028-3.631206-21.787234 25.41844-3.631206 29.049645a14.524823 14.524823 0 0 0 3.631206-29.049645z" fill="#FFFFFF" p-id="21813"></path><path d="M635.460993 486.58156h-3.631206a32.31773 32.31773 0 0 1-29.049645-36.312056 31.228369 31.228369 0 0 1 10.893617-21.787234 22.513475 22.513475 0 0 1 25.41844-7.262412c10.893617 3.631206 21.787234 7.262411 25.418439 18.156029a26.870922 26.870922 0 0 1-3.631205 32.680851 27.234043 27.234043 0 0 1-25.41844 14.524822z m0-29.049645a12.70922 12.70922 0 0 0 7.262411-3.631206l-3.631205-3.631205 3.631205-10.893617-3.631205 10.893617a3.631206 3.631206 0 0 0-3.631206 3.631205s-3.631206 0 0 3.631206zM820.652482 526.524823c-18.156028-3.631206-21.787234 25.41844-3.631205 29.049645s18.156028-29.049645 3.631205-29.049645z" fill="#FFFFFF" p-id="21814"></path><path d="M820.652482 573.730496h-3.631205a32.31773 32.31773 0 0 1-29.049646-36.312056 31.228369 31.228369 0 0 1 10.893617-21.787234 22.513475 22.513475 0 0 1 25.41844-7.262412c10.893617 3.631206 21.787234 7.262411 25.41844 18.156029a26.870922 26.870922 0 0 1-3.631206 32.680851 31.591489 31.591489 0 0 1-25.41844 14.524822z m-3.631205-39.943262v10.893617a12.70922 12.70922 0 0 0 7.262411-3.631206 7.988652 7.988652 0 0 0-7.262411-7.262411z m0 0c-3.631206 0-3.631206 3.631206-7.262412 3.631206s0 3.631206 0 3.631205a3.631206 3.631206 0 0 0 3.631206 3.631206zM613.673759 642.723404c-18.156028-3.631206-21.787234 25.41844-3.631206 29.049646s25.41844-29.049645 3.631206-29.049646z" fill="#FFFFFF" p-id="21815"></path><path d="M613.673759 689.929078h-3.631206a32.31773 32.31773 0 0 1-29.049645-36.312057 31.228369 31.228369 0 0 1 10.893617-21.787234 22.513475 22.513475 0 0 1 25.41844-7.262411 27.234043 27.234043 0 0 1 25.418439 18.156028 27.960284 27.960284 0 0 1-3.631205 36.312057 28.323404 28.323404 0 0 1-25.41844 10.893617z m0-36.312057c-3.631206 0-3.631206 0-7.262411 3.631206v3.631206l3.631205 3.631205 3.631206-3.631205c3.631206-7.262411 3.631206-7.262411 0-7.262412z" fill="#FFFFFF" p-id="21816"></path></svg>